<svg xmlns="http://www.w3.org/2000/svg" viewBox="0 0 64 64" fill="none">
  <defs>
    <linearGradient id="gold" x1="0%" y1="0%" x2="100%" y2="100%">
      <stop offset="0%" stop-color="#FFE066" />
      <stop offset="50%" stop-color="#D4AF37" />
      <stop offset="100%" stop-color="#996515" />
    </linearGradient>
    <linearGradient id="bg" x1="0%" y1="0%" x2="100%" y2="100%">
      <stop offset="0%" stop-color="#2D2A20" />
      <stop offset="100%" stop-color="#12100A" />
    </linearGradient>
  </defs>
  
  <rect width="64" height="64" rx="12" fill="url(#bg)"/>
  <path d="M12 32C12 20.954 20.954 12 32 12s20 8.954 20 20-8.954 20-20 20S12 43.046 12 32z" fill="url(#gold)" opacity="0.15"/>
  
  <path d="M46.8,25.6 c-0.6-0.6-1.5-0.7-2.3-0.3 c-1.5,0.8-3.4,1.8-5.7,2.5 c-1.8-3.4-5.3-5.8-9.5-6.1 c-6.6-0.4-12.4,4.2-13.6,10.6 c-0.8,4.5,0.7,9,4.1,12.2 c2.6,2.4,6.1,3.8,9.7,3.8 c7.4,0,13.7-5.5,14.6-12.8 C44.5,31.7,45.8,28.6,46.8,25.6 z M30.8,42.5 c-3.5,0-6.7-1.7-8.6-4.5 c-1.2-1.7-1.7-3.9-1.2-6.1 c0.8-3.9,4.1-6.7,8-6.7 c0.3,0,0.5,0,0.8,0.1 c2.9,0.3,5.4,2.2,6.5,5 c1,2.5,0.7,5.5-0.9,7.8 C34.3,40.7,32.6,42.5,30.8,42.5 z" fill="url(#gold)"/>
  
  <path d="M54.5,19.2 c-1.5-1.5-4-1.2-5.7,0.3 l-2.6,2.2 c0.9,1.1,1.5,2.4,1.8,3.9 l2.8-1 C52.5,23.9,54.8,22.2,54.5,19.2 z" fill="url(#gold)"/>
  <path d="M51.9,32.9 c-1.4,1.4-3.6,1.4-5.2,0 c-1.6-1.6-1.6-4.2,0-5.8 c1.4-1.4,3.6-1.4,5.2,0 C53.4,28.7,53.4,31.3,51.9,32.9 z" fill="url(#gold)"/>
</svg>
